<svg xmlns="http://www.w3.org/2000/svg" viewBox="0 0 300.93 300.89"><defs><style>.cls-1{fill:#fff;}</style></defs><g id="Layer_2" data-name="Layer 2"><g id="Layer_4" data-name="Layer 4"><path class="cls-1" d="M282.12,244.94v48.63c0,6-1.32,7.31-7.38,7.31H157.84c-6.19,0-7.39-1.16-7.39-7.22v-183c0-6.21,1.06-7.26,7.29-7.26h116.9c6.33,0,7.48,1.16,7.48,7.46V235c2.73,0,5.21.1,7.67-.08.6,0,1.32-1,1.64-1.65a5.52,5.52,0,0,0,.07-2.16V37.91H268V93.83h-9.37V28.48H42.24v3.36q0,57.49-.06,115c0,2.84.71,3.68,3.63,3.67,30.29-.11,60.59-.07,90.89-.07h4.19v9.34H42.45c-.08,1.29-.2,2.2-.2,3.11,0,13.57.06,27.15-.07,40.73,0,2.67.83,3.29,3.38,3.28q45.6-.12,91.2-.05h4.15v9.29H9.69V235H140.86v9.5h-7c-5,0-10-.09-15,.07-1,0-2.49.88-2.69,1.63-2.24,8.35-4.28,16.76-6.35,25.15a4.57,4.57,0,0,0,.18,1.31h30.93v9.43H89.46v9.29h51.38v9.37c-1.13.06-2.15.15-3.17.15H91c-7.45,0-11.14-3.71-11.15-11.17,0-2.4,0-4.81,0-7.21.12-5.78,3.83-9.61,9.57-9.82,2.61-.1,5.23-.14,7.83,0,1.76.09,2.64-.46,3.07-2.22,2-8.5,4.18-17,6.41-26H7c-5.72,0-7-1.28-7-7V35.1c0-5.73,1.19-6.88,7-6.89,8.44,0,16.88,0,25.78,0V15.53c0-3,0-6.06,0-9.09C32.83,1.57,34.3,0,39.11,0c10.24,0,20.47,0,30.7,0h161.1c10.23,0,20.46,0,30.7,0,4.91,0,6.28,1.41,6.3,6.36,0,6.36.1,12.74,0,19.1-.05,2.29.82,2.8,2.92,2.78,7.93-.1,15.88-.06,23.81,0,4.82,0,6.32,1.56,6.32,6.41q0,101.69,0,203.36c0,4.91-1.61,6.46-6.62,6.49-3.76,0-7.52,0-11.28.08C282.83,244.56,282.65,244.7,282.12,244.94ZM160,263H272.49V141.33H160ZM9.6,206.66h23V37.87H9.6Zm262.82-75.21V113.07H160.08v18.38Zm.26,141.45H160.08v18.55H268.91c.63,0,1.38.21,1.85-.06.74-.42,1.82-1.15,1.84-1.77C272.74,284.11,272.68,278.6,272.68,272.9ZM70.79,18.33H230.06V9.67H70.79Zm-28.37,0H60.73V9.66H42.42Zm197.61,0h18.21V9.7H240Z"/><path class="cls-1" d="M117.46,112.86c0,4.71,0,8.88,0,13,0,2.37-.56,4.32-3,5.33s-4.21-.14-5.84-1.77c-4.88-4.87-9.8-9.69-14.58-14.65a6.18,6.18,0,0,0-4.94-2c-10.34.08-20.67.05-31,0-5,0-6.52-1.59-6.52-6.59q0-31.15,0-62.32c0-4.81,1.52-6.33,6.4-6.33q40.73,0,81.44,0c4.76,0,6.2,1.43,6.21,6.13q0,31.47,0,63c0,4.62-1.59,6.14-6.25,6.15C132.24,112.87,125.06,112.86,117.46,112.86ZM61.39,47.22a4.88,4.88,0,0,0-.28,1c0,17.65,0,35.3-.1,53,0,2.13,1.05,2.32,2.72,2.31,9,0,18,.12,27-.09,3.73-.08,6.61.84,9.08,3.74s5.14,5.21,8.27,8.33c0-2.74,0-4.51,0-6.28.08-4,1.7-5.63,5.76-5.71,2.72-.05,5.43,0,8.15,0h14.13V47.22Z"/><path class="cls-1" d="M140.9,178.65v9.43h-3.52c-13.66,0-27.33,0-41,0-2,0-3.24.31-4.41,2.36a13.88,13.88,0,0,1-24.19-.06A4,4,0,0,0,63.61,188c-3.84.15-7.69.05-11.76.05v-9.43c3.7,0,7.51-.12,11.3,0a4.41,4.41,0,0,0,4.68-2.52,13.93,13.93,0,0,1,24.23.14,4,4,0,0,0,4.13,2.38c13.56-.08,27.13,0,40.69,0Zm-65.62,4.28a4.63,4.63,0,0,0,4.38,5,4.72,4.72,0,0,0,4.86-4.27,4.64,4.64,0,0,0-9.24-.75Z"/><path class="cls-1" d="M248.93,84.81v9.08H155.29V84.81Z"/><path class="cls-1" d="M164.63,75v-9h84.3v9Z"/><path class="cls-1" d="M248.92,47.25v9H216.45v-9Z"/><path class="cls-1" d="M206.74,47.24v9h-9v-9Z"/><path class="cls-1" d="M258.51,202.26c0,11.9,0,23.81,0,35.72,0,5.05-1.48,6.49-6.54,6.49H180.52c-5.14,0-6.66-1.54-6.66-6.76q0-35.73,0-71.44c0-4.88,1.49-6.43,6.3-6.43q36,0,72.08,0c4.89,0,6.26,1.41,6.27,6.38Q258.54,184.24,258.51,202.26Zm-9.64,32.62V169.45H183.59v65.43Z"/><path class="cls-1" d="M234.94,117.65v9H197.75v-9Z"/><path class="cls-1" d="M234.93,277.48v9H197.64v-9Z"/><path class="cls-1" d="M79.83,75.32c0-4.38,0-8.76,0-13.14.06-4.92,3.34-7,7.74-4.86,8.88,4.35,17.77,8.71,26.51,13.34a7.49,7.49,0,0,1,3.18,4.48c.57,2.28-1.23,3.73-3.25,4.73-8.86,4.4-17.68,8.88-26.56,13.24-4.27,2.09-7.53.07-7.62-4.65C79.77,84.08,79.83,79.7,79.83,75.32Zm22.43-.15L89.49,68.89V81.58Z"/><path class="cls-1" d="M216.43,192.6H230V202H216.38v28h-9.51V202.17H197.7v-9.52h9.13c-.28-6.28.34-12,5.67-16s11.36-2.55,17.51-2.88v9.48h-6.44c-6.14,0-7.37,1.25-7.26,7.33C216.32,191.13,216.37,191.65,216.43,192.6Z"/></g></g></svg>