<svg xmlns="http://www.w3.org/2000/svg" viewBox="0 0 297.76 297.7"><defs><style>.cls-1{fill:#fff;}</style></defs><g id="Layer_2" data-name="Layer 2"><g id="Layer_6" data-name="Layer 6"><path class="cls-1" d="M297.76,248.29c-1.53,2.33-3.68,3-6.43,2.94-27-.08-54.08,0-81.12,0h-3.64c2.09,6.22,4,12.15,6.13,18,.23.63,1.52,1,2.39,1.24,9.89,2.58,17.31,11.64,17.5,21.43.09,4.16-1.51,5.83-5.69,5.83H71.05c-4.52,0-6-1.62-5.89-6.2.32-9.62,7.73-18.57,17.6-21a3.47,3.47,0,0,0,2.9-2.7c1.7-5.42,3.57-10.8,5.52-16.61H6.33c-5,0-6.33-1.33-6.33-6.36V43.65c0-5.08,1.31-6.42,6.26-6.42H120.73v9.25H9.42v158H288.27V46.68h-9.13v8.47q0,16.27,0,32.56c0,8.76-5.81,14.61-14.52,14.61q-36.93,0-73.85,0a5.76,5.76,0,0,0-4.55,1.88c-6.31,6.44-12.74,12.75-19.08,19.15-1.77,1.78-3.62,3-6.18,1.87s-2.82-3.14-2.78-5.54c.07-5.62,0-11.23,0-17.32-4.69,0-9.29,0-13.9,0a13.78,13.78,0,0,1-13.68-10.79,18.9,18.9,0,0,1-.32-4.33c0-23.35.18-46.71-.12-70.05C130.06,8.57,133.11,2.8,141.31,0H268.1a3.5,3.5,0,0,0,.72.46c7.18,2.57,10.31,7,10.32,14.61V37.23c4.31,0,8.26.13,12.2,0,2.76-.13,4.9.61,6.42,2.94ZM167.47,109.65c5-5,9.58-9.45,14-14A8.11,8.11,0,0,1,187.86,93c25.19.08,50.38,0,75.57,0,4.73,0,6.42-1.6,6.42-6.17q0-35.75,0-71.49c0-4.43-1.7-6.08-6.21-6.08q-59,0-118,0c-4.33,0-6.06,1.68-6.06,5.92q0,35.89,0,71.78c0,4.31,1.7,6,6,6,5.43,0,10.85,0,16.28,0,4.06,0,5.64,1.57,5.67,5.56C167.49,102.05,167.47,105.49,167.47,109.65ZM288.4,214.09c-.69-.05-1.15-.11-1.62-.11q-41.28,0-82.55,0c-1.72,0-2.19.61-2.64,2.2-2.87,10.09-11.42,16.43-22,16.43q-30.81,0-61.62,0c-10.25,0-18.87-6.27-21.65-16.06-.63-2.23-1.6-2.57-3.58-2.57q-40.26.08-80.52,0c-.93,0-1.85.08-2.71.12v27.58H288.4Zm-85.63,55.62c-1.77-5.4-3.58-10.58-5.15-15.83-.63-2.12-1.65-2.76-3.87-2.75-19.56.1-39.12.06-58.68.06-10.55,0-21.1,0-31.66,0-.89,0-2.37.46-2.58,1.06-2.06,5.7-3.9,11.47-5.86,17.42Zm19.47,18.55a8.68,8.68,0,0,0-.43-1.27c-2.9-5.58-7.66-7.9-13.78-7.9H89.68c-.68,0-1.36,0-2,.06-5.82.52-10.5,4-11.94,9.1ZM192,214.14H105.68a12.21,12.21,0,0,0,11.84,9.1q31.37.16,62.73,0A12.14,12.14,0,0,0,192,214.14Z"/><path class="cls-1" d="M64.76,156c3,7.25,5.63,13.77,8.28,20.3,1.64,4.06.78,6.24-3.15,7.87-4.91,2-9.84,4-14.79,6-3.51,1.38-5.67.45-7.15-3.11q-3.78-9.1-7.41-18.26c-.57-1.45-1.15-2.11-3-1.71a13.41,13.41,0,0,1-15.3-7.71c-2.71-6.09-5.26-12.26-7.55-18.52-2.62-7.14.8-14.49,7.89-17.42,8.57-3.55,17.19-7,25.76-10.53A12.71,12.71,0,0,0,52,110.57q16.28-14.92,32.42-30a6,6,0,0,0,1.68-3.65c.49-6,3.15-10.47,8.83-12.88q3.46-1.47,7-2.85c3.83-1.52,6-.64,7.55,3.24q10.41,25.49,20.79,51,6.56,16.1,13.13,32.2c1.7,4.17.81,6.25-3.36,8-2.14.89-4.3,1.73-6.46,2.58-5.82,2.29-11,1.2-15.5-3.09a4.66,4.66,0,0,0-2.92-1.37q-22.22.45-44.44,1.17A43.61,43.61,0,0,0,64.76,156Zm11-54.51L58.67,117.31c3.67,9,7.3,17.92,11,26.83a2.24,2.24,0,0,0,1.61,1.22c7.22-.09,14.45-.29,22.19-.47ZM50.47,122.2c-8,3.27-15.73,6.39-23.41,9.54-3.7,1.52-4.53,3.41-3.08,7q3.11,7.82,6.34,15.56c1.47,3.53,3.51,4.34,7.16,2.89Q48,153,58.42,148.76c.77-.31,1.49-.75,2.39-1.21ZM102.2,71.43c-6.93,2.15-7.66,3.63-5.1,9.91Q110,113.17,123,145c2.32,5.69,4.93,6.41,10.26,2.77Zm10.34,72.8L89.86,88.52c-2.15,2-4.07,3.59-5.79,5.39a2.58,2.58,0,0,0-.24,2.25q9.48,23.49,19.12,46.91a2.61,2.61,0,0,0,1.76,1.46C107.18,144.59,109.66,144.37,112.54,144.23ZM48.33,163c2.34,5.72,4.62,11.27,7,16.94L63,176.69c-2.34-5.74-4.59-11.24-6.89-16.87Z"/><path class="cls-1" d="M204.7,167.34H214V122.23c0-4.45,1.47-5.91,5.9-5.92,5.52,0,11.05,0,16.57,0,3.82,0,5.41,1.64,5.42,5.52q0,21.09,0,42.16v3.31h9.26V111.86h9.22c0,1,.12,1.91.12,2.85q0,27.92,0,55.82c0,4.84-1.38,6.23-6.19,6.23h-86.7v-9.21h9.16v-5.46c0-8.82,0-17.64,0-26.46,0-3.69,1.63-5.34,5.28-5.36,5.81,0,11.63,0,17.45,0,3.46,0,5.13,1.71,5.14,5.2,0,9.5,0,19,0,28.5Zm18.81-41.62v41.52h9V125.72Zm-28.24,14h-9v27.59h9Z"/><path class="cls-1" d="M241.78,186.28v8.94H135.17v-8.94Z"/><path class="cls-1" d="M270,111.79h8.94v64.78H270Z"/><path class="cls-1" d="M28,79H18.66c0-6.51-.16-13,.09-19.38.09-2.33,2-3.7,4.44-3.72,6.08,0,12.16,0,18.45,0v9.24H28Z"/><path class="cls-1" d="M27.77,88.55v8.92h-9V88.55Z"/><path class="cls-1" d="M251.39,186.2h8.94v9h-8.94Z"/><path class="cls-1" d="M278.89,195.3h-8.82v-9h8.82Z"/><path class="cls-1" d="M167.61,65.11a13.94,13.94,0,1,1,13.82-13.83A13.88,13.88,0,0,1,167.61,65.11Zm4.5-13.84a4.63,4.63,0,1,0-4.73,4.53A4.85,4.85,0,0,0,172.11,51.27Z"/><path class="cls-1" d="M218.65,51.22a13.95,13.95,0,1,1-14-14A13.84,13.84,0,0,1,218.65,51.22Zm-9.32,0a4.63,4.63,0,1,0-4.68,4.58A4.85,4.85,0,0,0,209.33,51.22Z"/><path class="cls-1" d="M241.84,37.23A13.94,13.94,0,1,1,228,51.33,13.85,13.85,0,0,1,241.84,37.23Zm.06,18.57a4.63,4.63,0,1,0-4.61-4.66A4.85,4.85,0,0,0,241.9,55.8Z"/></g></g></svg>