<svg width="46" height="34" viewBox="0 0 46 34" fill="none" xmlns="http://www.w3.org/2000/svg">
<path d="M0.5 30.3955V9.04219C0.579533 9.07042 0.656782 9.10505 0.731033 9.14576L18.9902 21.6846C21.5987 23.4836 24.3711 23.4913 26.9945 21.6846L45.045 9.29919L45.4996 9V29.7703C45.5026 29.9655 45.4889 30.1606 45.4586 30.3533C45.3081 31.3935 44.7905 32.3401 44.0048 33.0123C43.2191 33.6845 42.2203 34.0351 41.1994 33.9972H14.6975C11.3698 33.9972 8.04589 33.9972 4.71825 33.9972C4.03317 34.023 3.35321 33.8664 2.74414 33.5426C2.13508 33.2187 1.61752 32.7385 1.24154 32.1484C0.945083 31.5875 0.696955 31.001 0.5 30.3955Z" fill="white"/>
<path d="M0.5 3.42363C0.567033 3.20874 0.634061 2.99385 0.704817 2.77897C0.977068 1.99484 1.48566 1.3097 2.16367 0.813672C2.84168 0.317647 3.65734 0.0339812 4.50334 0H41.1367C42.9205 0 44.2723 0.728433 45.073 2.32006C45.5158 3.17242 45.6185 4.15544 45.361 5.07777C45.1036 6.0001 44.5044 6.79574 43.6802 7.30981C41.6096 8.68291 39.5242 10.0305 37.4424 11.389L25.6521 19.074C23.7566 20.3087 22.2298 20.3087 20.3305 19.074C14.6104 15.3444 8.90142 11.6003 3.15896 7.89984C1.9114 7.09492 0.846335 6.21716 0.5 4.72024V3.42363Z" fill="white"/>
</svg>
