<svg width="37" height="49" viewBox="0 0 37 49" fill="none" xmlns="http://www.w3.org/2000/svg">
<path d="M18.1137 48.996C17.7045 48.7298 17.3176 48.4311 16.9568 48.1028C12.523 43.5139 8.63402 38.4326 5.36657 32.959C3.40577 29.6247 1.75757 26.1449 0.961885 22.3297C-0.255999 16.5421 0.925348 11.2719 4.61554 6.6443C7.17714 3.33358 10.8847 1.09041 15.0163 0.351568C21.605 -0.860904 27.2195 1.07501 31.7743 5.96936C34.037 8.40966 35.5598 11.4376 36.1668 14.7032C36.7776 18.043 36.5461 21.4814 35.4929 24.7101C34.5765 27.6814 33.302 30.5313 31.6972 33.1974C28.4372 38.6385 24.5188 43.6606 20.0299 48.1513C19.6727 48.4619 19.2928 48.7456 18.8932 49L18.1137 48.996ZM9.72659 17.3585C9.72872 19.6729 10.6518 21.8921 12.2937 23.5305C13.9355 25.1689 16.1626 26.093 18.4872 26.1004C19.6421 26.0994 20.7855 25.8717 21.8519 25.4305C22.9184 24.9893 23.887 24.3432 24.7025 23.5291C25.518 22.7149 26.1644 21.7488 26.6046 20.6858C27.0448 19.6229 27.2703 18.484 27.2682 17.3343C27.2676 16.1844 27.0392 15.046 26.5958 13.9842C26.1525 12.9224 25.503 11.9582 24.6846 11.1468C23.8662 10.3354 22.895 9.69283 21.8266 9.25587C20.7583 8.8189 19.6138 8.59617 18.4588 8.60042C16.1353 8.61219 13.9112 9.54075 12.2743 11.1825C10.6374 12.8243 9.72118 15.0453 9.72659 17.3585Z" fill="white"/>
</svg>
