<svg width="53" height="52" viewBox="0 0 53 52" fill="none" xmlns="http://www.w3.org/2000/svg">
<path d="M0.51286 13.6181C0.615746 12.7612 0.684337 11.8743 0.821518 11.0088C1.27552 8.10458 2.53662 5.38626 4.4611 3.16356C5.06728 2.43302 5.73568 1.75637 6.4588 1.14121C7.24809 0.449731 8.25007 0.0485461 9.29871 0.00412906C10.3473 -0.040288 11.3797 0.274726 12.2247 0.896978C12.852 1.32713 13.4402 1.81174 13.9823 2.34519C16.846 5.18163 19.6839 8.03948 22.5561 10.8802C22.6687 10.9746 22.7505 11.1006 22.791 11.2418C22.8315 11.3831 22.8288 11.5332 22.7833 11.6729C22.0031 15.1649 21.2529 18.6611 20.4813 22.1531C20.434 22.2943 20.4292 22.4462 20.4672 22.5901C20.5053 22.734 20.5847 22.8636 20.6956 22.9629C23.6964 25.9622 26.6973 28.9614 29.6981 31.9221C29.8723 32.0896 30.1037 32.1846 30.3454 32.1878C33.0505 32.0592 35.7555 31.9007 38.4605 31.7593C39.9138 31.6779 41.3671 31.5837 42.8203 31.5237C43.0463 31.5295 43.262 31.6197 43.4248 31.7765C45.7483 34.0616 48.0618 36.3682 50.3653 38.6962C51.1911 39.4559 51.8256 40.3999 52.2172 41.4512C52.8774 43.4307 52.3458 45.1917 50.9955 46.6613C48.4861 49.4566 45.0704 51.2773 41.3499 51.8029C40.9855 51.8543 40.6211 51.9357 40.2568 52H37.5174C37.3564 51.9575 37.1932 51.9232 37.0287 51.8972C35.4169 51.7083 33.8413 51.2854 32.3517 50.6418C30.338 49.7466 28.5146 48.4739 26.9802 46.8927C20.1412 40.0658 13.3007 33.2375 6.4588 26.4078C5.76432 25.7137 5.06555 25.0238 4.43109 24.2655C2.52382 22.0524 1.27096 19.3522 0.812946 16.4674C0.671478 15.5848 0.602886 14.6936 0.5 13.8109L0.51286 13.6181Z" fill="white"/>
</svg>
