<svg width="48" height="46" viewBox="0 0 48 46" fill="none" xmlns="http://www.w3.org/2000/svg">
<path d="M22.7697 0H25.9871C26.5266 0.0683083 27.0699 0.129028 27.6133 0.208721C32.0069 0.801111 36.13 2.62835 39.4817 5.46846C43.5205 8.80375 46.23 13.4226 47.1352 18.5153C47.2865 19.3199 47.3797 20.1358 47.5 20.9479V23.9155C47.4728 24.0597 47.434 24.2001 47.4107 24.3443C47.2982 25.145 47.2322 25.9534 47.0692 26.7427C46.0268 32.0797 42.9986 36.8496 38.5696 40.1311C33.6212 43.8729 27.982 45.3567 21.7723 44.7343C19.0291 44.4668 16.3625 43.6943 13.913 42.4574C13.7694 42.3774 13.6099 42.3282 13.4453 42.3132C13.2807 42.2981 13.1147 42.3176 12.9583 42.3701C11.1885 42.9432 9.41098 43.5086 7.63732 44.0399C5.54153 44.6926 3.44575 45.3491 1.3422 45.9753C1.2166 46.0054 1.08577 46.008 0.958996 45.9831C0.832225 45.9582 0.712621 45.9063 0.60867 45.8311C0.468951 45.702 0.515524 45.3795 0.5 45.1404C0.512872 45.0519 0.540396 44.966 0.5815 44.8861C1.78852 41.4062 2.9839 37.9225 4.21032 34.4502C4.29091 34.2467 4.32233 34.0279 4.30214 33.8107C4.28194 33.5934 4.21067 33.3837 4.09389 33.1978C1.37634 28.446 0.56424 22.8754 1.81568 17.5704C2.84696 13.1566 5.21191 9.14797 8.6033 6.06536C11.9947 2.98276 16.2558 0.968627 20.833 0.284618L22.7697 0ZM7.69166 39.0572C7.87795 39.0078 7.96721 38.9927 8.0526 38.9661C9.72535 38.4462 11.4136 37.9566 13.0708 37.3912C13.3777 37.274 13.7093 37.2328 14.0364 37.2712C14.3634 37.3096 14.6757 37.4264 14.9454 37.6113C18.5925 39.8087 22.9261 40.6505 27.1553 39.9831C30.2003 39.553 33.0778 38.3536 35.5035 36.5032C39.6874 33.3269 42.1014 29.1525 42.6021 24.0066C43.0139 20.2338 42.0951 16.4366 39.9979 13.2442C36.5359 7.89341 31.506 5.07 25.0595 4.69809C22.5587 4.57805 20.0611 4.99111 17.7398 5.90867C14.2324 7.21102 11.2312 9.5563 9.15871 12.6143C6.75157 16.0575 5.70102 20.2365 6.20132 24.3785C6.43877 27.0177 7.35169 29.556 8.85599 31.7596C9.19545 32.1681 9.40924 32.6624 9.47245 33.1851C9.53566 33.7078 9.44571 34.2374 9.21305 34.712C8.63089 36.1009 8.20784 37.5544 7.69166 39.0572Z" fill="white"/>
<path d="M35.4975 28.6752C35.5239 31.9963 32.9303 33.6588 30.6274 33.9521C29.0909 34.1477 27.6488 33.7096 26.2067 33.2598C21.7292 31.8672 18.3428 28.9569 15.5983 25.1195C14.6507 23.7934 13.7106 22.4673 13.1104 20.9144C12.7002 19.9279 12.4924 18.8639 12.5002 17.7898C12.508 16.7158 12.7312 15.6551 13.1557 14.6752C13.4234 13.9918 13.8671 13.3978 14.4382 12.9577C15.0094 12.5176 15.6862 12.2485 16.3948 12.1795C16.7044 12.1365 17.0102 12.0856 17.3198 12.0387C17.6441 11.9605 17.9846 12.0016 18.2828 12.1551C18.5811 12.3085 18.8185 12.5647 18.9544 12.8797C19.6528 14.4952 20.3097 16.1303 20.9553 17.7693C21.2309 18.4734 20.8496 19.068 20.4872 19.6118C20.1701 20.0929 19.7623 20.5075 19.4226 20.9769C19.3784 21.0429 19.3502 21.119 19.3403 21.1986C19.3305 21.2783 19.3393 21.3592 19.3659 21.4346C21.1743 24.0868 23.345 26.3008 26.2708 27.6112C26.325 27.6486 26.386 27.674 26.45 27.686C26.514 27.6979 26.5797 27.6962 26.6431 27.6808C26.7064 27.6654 26.766 27.6367 26.8182 27.5965C26.8704 27.5562 26.9141 27.5053 26.9466 27.4469C27.4261 26.8015 27.9395 26.1756 28.434 25.5419C28.9286 24.9082 29.4345 24.6618 30.1555 24.9943C31.7713 25.7375 33.3607 26.559 34.9463 27.3413C35.4748 27.5995 35.5126 28.1471 35.4975 28.6752Z" fill="white"/>
</svg>
