<svg xmlns="http://www.w3.org/2000/svg" viewBox="0 0 296.63 296.69"><defs><style>.cls-1{fill:#fff;}</style></defs><g id="Layer_2" data-name="Layer 2"><g id="Layer_3" data-name="Layer 3"><path class="cls-1" d="M210.88,296.69H85.74c-5.19-2.16-7.48-6-7-11.63.2-2.11,0-4.25,0-6.37,0-6,3.79-9.75,9.74-9.8,3.26,0,6.52,0,9.76,0,2.34-9.4,4.59-18.49,6.91-27.84H6C1.67,241,0,239.5,0,235.45q0-101,0-201.95c0-4.12,1.62-5.67,5.86-5.68,7.82,0,15.65,0,23.47,0h3.11c0-7.11,0-13.94,0-20.76,0-5.93,1.13-7.06,7.1-7.06H257.1c5.95,0,7.07,1.13,7.08,7.09V27.82c8.78,0,17.26.09,25.73-.06,2.82,0,5.1.53,6.72,2.94V238.16c-1.61,2.41-3.9,3-6.71,2.94q-47.61-.12-95.21,0h-3.33c2.38,9.54,4.66,18.65,7,27.84,3.52,0,6.79,0,10.06,0,5.57.07,9.35,3.9,9.42,9.52,0,2.22-.16,4.45,0,6.65C218.36,290.7,216.06,294.53,210.88,296.69ZM41.9,27.92V203.75H254.77V27.92ZM287.24,213.44H9.48v18.21H287.24ZM9.45,37.2V203.75H32.29V37.2ZM264.3,203.77h22.84V37.23H264.3Zm-75.66,65c-2.35-9.41-4.63-18.51-6.9-27.6H114.87c-2.29,9.2-4.56,18.31-6.88,27.6ZM69.71,9.38v8.94H227V9.38Zm138.74,269H88.28v8.94H208.45ZM60.15,9.48H41.85v8.89h18.3Zm194.62,8.94v-9h-18.2v9Z"/><path class="cls-1" d="M227.09,166.9c4.56,0,8.79,0,13,0,3.82,0,5.49,1.67,5.52,5.44,0,5.7,0,11.4,0,17.09,0,3.47-1.72,5.23-5.12,5.24q-18,.06-35.92,0c-3.57,0-5.24-1.75-5.26-5.4,0-5.7,0-11.39,0-17.09,0-3.59,1.74-5.25,5.38-5.28,4.24,0,8.48,0,12.93,0V148.34c-4,0-8-.05-12,0a3.36,3.36,0,0,0-1.81,1.16c-4,4-8,8.08-12.1,12.07-2.74,2.68-4.92,2.76-7.87.28-3.4-2.86-6.79-5.73-10-8.75-1.29-1.19-2.28-.79-3.78-.52-6.35,1.13-7.3,5.48-7.23,10.8a70.78,70.78,0,0,1-.56,8.09c-.3,3-1.92,4.57-4.88,4.6q-9,.1-18,0c-3.1,0-4.69-1.6-5-4.82-.42-4.61-.71-9.24-1.14-13.85-.08-.83-.42-2-1-2.34a48.74,48.74,0,0,0-6.91-2.9,2.9,2.9,0,0,0-2.16.77c-3.33,2.79-6.58,5.68-9.87,8.52-3.44,3-5.55,2.92-8.74-.23-3.9-3.87-7.74-7.82-11.7-11.65a4.39,4.39,0,0,0-2.64-1.23c-3.66-.14-7.33-.06-11.22-.06V166.9c4,0,8.15,0,12.26,0,4.55,0,6,1.5,6,6.08,0,5.41,0,10.82,0,16.22,0,3.79-1.68,5.47-5.47,5.48q-17.67,0-35.34,0c-3.8,0-5.47-1.68-5.49-5.46q-.06-8.4,0-16.8c0-3.82,1.67-5.48,5.45-5.51,4.23,0,8.47,0,13.09,0V153.8c0-3.18,0-6.37,0-9.56.06-3.41,1.77-5.12,5.22-5.15,6.27,0,12.55.07,18.82-.08,1.16,0,2.33-.9,3.41-1.54A6.73,6.73,0,0,0,98.36,136c5.18-5.91,5.22-5.94,1.64-13a3.48,3.48,0,0,0-2.45-1.29c-4.61-.47-9.24-.74-13.85-1.15-3.36-.3-4.86-1.89-4.89-5.21,0-5.79,0-11.59,0-17.38,0-3.34,1.51-5,4.84-5.25,4.61-.42,9.24-.7,13.85-1.14.83-.08,2-.41,2.35-1a49.25,49.25,0,0,0,2.88-6.92,2.94,2.94,0,0,0-.78-2.17c-2.79-3.33-5.67-6.58-8.5-9.88-3-3.47-2.94-5.53.23-8.73q5.49-5.56,11-11.07c3-2.94,5.13-3,8.31-.3s6.6,5.65,9.83,8.56c1.12,1,2,1,3.51.69,6.15-1.31,7.77-5.3,7.49-11a55,55,0,0,1,.54-8.08c.3-3,1.93-4.55,4.9-4.59q9-.09,18,0c3,0,4.65,1.57,4.93,4.55.44,4.71.86,9.42,1.08,14.14.07,1.64.57,2.5,2.14,2.82a4.09,4.09,0,0,1,1.61.59c3.92,3,6.85,1.42,9.78-1.72a75.21,75.21,0,0,1,7-6.12c3-2.48,5.18-2.44,7.87.2q5.9,5.77,11.67,11.68c2.69,2.74,2.77,4.93.3,7.86-2.87,3.39-5.75,6.78-8.76,10-1.18,1.27-1.44,2.37-.45,3.76a.55.55,0,0,1,.13.25c.89,6.08,5.07,7.15,10.28,7a68.52,68.52,0,0,1,8.08.54c3.37.31,4.89,1.88,4.92,5.18.05,5.8,0,11.59,0,17.39,0,3.36-1.5,5-4.81,5.27-4.71.42-9.44.67-14.13,1.19a4.61,4.61,0,0,0-2.43,1.74c-.47.53-.39,1.54-.83,2.12-2.84,3.73-1.07,6.28,1.54,9.36s5.21,4.52,9.29,4.23c5.09-.37,10.23-.12,15.35-.08,3.6,0,5.27,1.73,5.29,5.36C227.12,151.79,227.09,159.12,227.09,166.9ZM143.38,46.43c-.32,4.8-.7,9.31-.91,13.82-.15,3.17-1.5,5.14-4.6,6.2a78.91,78.91,0,0,0-10.37,4.3c-3,1.55-5.37,1.2-7.84-1.08-3.36-3.12-6.93-6-10.14-8.76l-7.16,6.59c3.23,3.77,6.33,7.46,9.53,11.06a5.46,5.46,0,0,1,.83,6.64A103,103,0,0,0,108.49,95c-1.8,5-2.52,5.56-7.9,5.83-4.12.2-8.23.6-12.43.92v9.8c4.58.32,9.08.66,13.58.94,4,.24,5.13,1.19,6.52,4.93a104.34,104.34,0,0,0,4.33,10.36c1.33,2.71,1.12,4.88-.88,7.12-3.15,3.51-6.18,7.14-9.18,10.63l6.79,7,10.15-8.72c3.48-3,4.31-3,8.53-1a89.56,89.56,0,0,0,8.75,3.7c4.86,1.71,5.49,2.52,5.75,7.65.22,4.21.61,8.41.93,12.62h9.8c.32-4.61.65-9.12.93-13.63.24-3.83,1.22-5.05,4.73-6.37a104.66,104.66,0,0,0,10.36-4.32c2.94-1.49,5.22-1.15,7.6,1,3.4,3.11,7,6,10,8.66l7.35-6.47c-3.27-3.8-6.39-7.48-9.57-11.1a5.32,5.32,0,0,1-.8-6.39,101.15,101.15,0,0,0,4.13-9.51c2-5.49,2.51-6,8.49-6.25,4-.2,8-.61,11.95-.93v-9.79c-4.66-.32-9.16-.65-13.67-.93-3.83-.24-5-1.21-6.33-4.78a103.39,103.39,0,0,0-4.31-10.37c-1.41-2.81-1.2-5,.9-7.36,3.15-3.49,6.15-7.11,9.16-10.62l-6.79-6.93-10.32,8.86c-3.36,2.87-4.25,2.9-8.29,1a85.29,85.29,0,0,0-8.48-3.61c-5.42-1.9-5.89-2.5-6.18-8.24-.2-4.08-.62-8.16-.94-12.24ZM88,176.36H60.38v8.91H88Zm148.21,9v-9H208.73v9Z"/><path class="cls-1" d="M51.2,37.21H78.61v8.9H51.2Z"/><path class="cls-1" d="M218,46.14v-8.9H245.4v8.9Z"/><path class="cls-1" d="M51.12,64.68v-8.9H78.54v8.9Z"/><path class="cls-1" d="M218,55.75h27.43v9H218Z"/><path class="cls-1" d="M78.62,83.31H51.19v-9H78.62Z"/><path class="cls-1" d="M245.5,74.37v8.91H218.08V74.37Z"/><path class="cls-1" d="M176.1,106.57a27.79,27.79,0,1,1-27.83-27.75A27.94,27.94,0,0,1,176.1,106.57Zm-9.28-.06a18.51,18.51,0,0,0-37,.07c-.05,10.06,8.71,18.76,18.69,18.55S167,116.43,166.82,106.51Z"/></g></g></svg>