<svg xmlns="http://www.w3.org/2000/svg" viewBox="0 0 383.47 383.25"><defs><style>.cls-1{fill:#fff;}</style></defs><g id="Layer_2" data-name="Layer 2"><g id="Layer_5" data-name="Layer 5"><path class="cls-1" d="M204.4,383.25c-2.08-.75-4.18-1.45-6.23-2.27a29.62,29.62,0,0,1-18.44-27.13q-.06-120.32,0-240.62a29.62,29.62,0,0,1,29.71-29.37q59.88-.08,119.77,0a29.65,29.65,0,0,1,30.14,30.07q.06,89.63,0,179.25v4.49c6.31-1.12,11.4-7.77,11.95-15.41.09-1.24.05-2.49.05-3.74q0-122.74,0-245.48c0-14.15-7-21.08-21.16-21.08h-272V0H352.32c18.24,0,31,12.81,31,31.11,0,82.58-.16,165.15.15,247.73.06,15.7-9.21,28.5-24.1,32.11,0,9.25,0,18.58,0,27.92,0,6.48.56,13.09-.5,19.41-2.15,12.72-10.05,20.76-22.55,24.2a10.35,10.35,0,0,0-1.62.76ZM191.92,125.84V335.05H347.21V126H317c-.34,1.21-.59,2.17-.88,3.12-3.25,10.75-8.4,14.6-19.54,14.6-18.72,0-37.44-.09-56.15,0-7.7.06-12.75-3.58-15.85-10.28-1.12-2.44-1.85-5.05-2.77-7.62Zm-.09-12h2.53q15.9,0,31.8,0c5.19,0,6.93,1.63,7.49,6.67a36.53,36.53,0,0,0,1,5.51c1.27,4.67,2.82,5.78,7.7,5.78,18.21,0,36.42-.09,54.63.07,4.08,0,6.36-1.57,7.3-5.36.41-1.69.83-3.39,1.08-5.11.93-6.53,2.05-7.56,8.54-7.56q16.62,0,33.24,0c.07-10.37-7.8-18-18.57-18-23.45-.06-46.9,0-70.35,0-16,0-31.93-.06-47.9,0C199.78,95.88,192.29,103.11,191.83,113.79Zm.06,233.65c-1.3,16,5.91,23.85,21.5,23.85q57.09,0,114.16,0c13.74,0,22.11-10.27,19.37-23.84Z"/><path class="cls-1" d="M0,24.7C.5,23.32,1,22,1.49,20.56A29.8,29.8,0,0,1,29.78,0c3.86,0,7.72,0,11.86,0V12c-3.71,0-7.41-.05-11.11,0C19.83,12.14,12,19.73,12,30.39q-.09,109.47,0,218.93c0,.6.08,1.2.14,2.07H167.4v12H12.12c0,7-.54,13.61.13,20.12,1,9.62,8.63,15.85,18.6,15.88,21.21.06,42.42,0,63.63,0h72.91v11.8H130.65l-3,12h39.8v12.06h-43c-9.7,0-11.26,1.72-10.41,11.91h53.46v11.83c-1,.06-2.07.2-3.14.2q-27.51,0-55,0c-5.49,0-7.46-2-7.49-7.36,0-3.49,0-7,0-10.48,0-7.46,3.49-13,10.07-16.18a6.61,6.61,0,0,0,4.06-5.13c.56-2.8,1.27-5.56,2-8.75H31.66c-16,0-26.67-8.15-31-23.79a3.25,3.25,0,0,0-.62-.89Z"/><path class="cls-1" d="M113.79,38.45c6.2,3.53,11.53,4.8,16.29-2.08,1.89-2.73,5.48-2.35,8,.07,5.83,5.64,11.59,11.35,17.19,17.21,2.6,2.71,2.66,6.19-.5,8.56-5.41,4.06-5.93,8.36-2.41,13.7a12.08,12.08,0,0,1,.8,2c2.69,0,5.43,0,8.16,0,4.06.1,6.33,2.22,6.37,6.19q.12,11.79,0,23.58c0,3.79-2.3,6-6.09,6.1-2.73.09-5.47,0-8.34,0-1.2,2.8-2.45,5.48-3.46,8.25a3.84,3.84,0,0,0,.42,2.54c.29.64,1,1.09,1.53,1.62,7.09,7.13,7.08,8.4-.16,15.63-4.24,4.23-8.43,8.52-12.73,12.69-3.4,3.3-6.83,3.64-9.66-.06-3.82-5-7.75-5.56-12.77-2.42a18.76,18.76,0,0,1-2.62,1.11c0,2.68,0,5.42,0,8.15-.1,4-2.24,6.32-6.21,6.36q-11.79.12-23.58,0c-3.8,0-6-2.29-6.09-6.09-.09-2.74,0-5.48,0-8.33-2.81-1.2-5.48-2.49-8.26-3.45a3.51,3.51,0,0,0-2.79.67c-1.55,1.24-2.82,2.82-4.28,4.18-3.35,3.09-6.32,3.18-9.51.07q-8.17-8-16.15-16.15c-3-3.08-3.32-6.57,0-9.11,5.44-4.09,5.85-8.39,2.38-13.71a12.82,12.82,0,0,1-.79-1.94c-2.7,0-5.43,0-8.16,0-4.07-.09-6.33-2.22-6.37-6.19Q23.88,95.76,24,84c0-3.8,2.28-6,6.08-6.09,2.74-.09,5.48,0,8.34,0,1.2-2.81,2.45-5.48,3.47-8.25a4.14,4.14,0,0,0-.4-2.55c-.21-.53-.84-.9-1.28-1.34-7.46-7.53-7.46-8.54.16-16.16,4.14-4.15,8.26-8.33,12.46-12.42,3.4-3.3,6.38-3.35,9.77,0,1.86,1.82,3.41,3.95,4.87,5.67l10.41-4.3c0-2.64,0-5.37,0-8.1C78,26.29,80.1,24,84.07,24q11.79-.12,23.59,0c3.8,0,5.94,2.28,6.12,6.07.06,1.37,0,2.74,0,4.11Zm19.69,10.88c-1.23,1.38-2.39,2.83-3.71,4.12-3.43,3.39-5.25,3.41-9.65,1.27a118.58,118.58,0,0,0-12.72-5.26c-4.33-1.51-5.53-2.85-5.56-7.55,0-1.94,0-3.88,0-5.69h-12c0,2.42,0,4.54,0,6.66.07,3.36-1.71,5.22-4.7,6.39q-7.44,2.91-14.77,6.1c-3,1.3-5.58,1.11-7.83-1.29-1.5-1.61-2.86-3.34-4.13-4.82L49.27,58c1.49,1.37,2.91,2.56,4.2,3.87,3.37,3.41,3.42,5.28,1.28,9.65a107.48,107.48,0,0,0-5.16,12.36c-1.68,4.85-2.82,5.91-8,5.92H36.23v12c2.43,0,4.55,0,6.67,0,3.36-.08,5.22,1.71,6.39,4.7q2.91,7.44,6.1,14.76c1.23,2.81,1.19,5.36-1,7.56-1.64,1.63-3.49,3.05-5,4.39l9,9.46c1.48-1.81,2.75-3.5,4.17-5,2.34-2.55,5-2.67,8.14-1.28q7.13,3.18,14.42,6c3.18,1.21,5,3.17,4.82,6.68-.07,2.18,0,4.37,0,6.54h12c0-2,0-3.84,0-5.68,0-4.9,1.19-6.14,5.79-7.76a123.76,123.76,0,0,0,13-5.52c3.35-1.63,6.22-1.58,8.77,1.24,1.39,1.54,2.64,3.21,3.75,4.58l9.52-9a54.17,54.17,0,0,1-4.48-3.62c-3.41-3.38-3.42-5.21-1.26-9.64a108.46,108.46,0,0,0,5.15-12.36c1.66-4.83,2.81-5.88,8-5.9h5.42v-12c-2.38,0-4.59,0-6.8,0-3.36.07-5.21-1.71-6.38-4.71-1.93-5-4-9.88-6.1-14.76-1.23-2.81-1.2-5.36,1.05-7.55,1.66-1.62,3.5-3.06,4.91-4.26Z"/><path class="cls-1" d="M124.35,187.1,114.93,196c1.77,1.48,3.44,2.76,5,4.19,2.53,2.35,2.66,5.05,1.27,8.15q-3.18,7.13-6,14.41c-1.21,3.17-3.15,4.95-6.66,4.83-2.1-.07-4.2,0-6.7,0v17.78H89.93c0-8.31-.21-16.62.11-24.9.11-3,2.55-4.74,5.72-4.81,2.85-.06,5.71,0,8.41,0a8.93,8.93,0,0,0,.59-.79c3.2-5.7,4.34-10.79-2.33-15.34-2.93-2-2.56-5.59,0-8.24q8.31-8.61,16.92-16.93c2.77-2.67,5.75-2.59,8.65.1,2,1.86,3.7,4,5.5,6l10.27-4.23c0-2.84-.08-5.7,0-8.55.14-3.59,2.3-5.87,5.86-5.92,7.84-.1,15.68,0,23.78,0v11.82H155.72c0,2.31-.08,4.37,0,6.43.19,4-1.76,6-5.5,7.27a112.24,112.24,0,0,0-13.05,5.38c-4.12,2-6.06,1.91-9.33-1.36C126.55,189.93,125.45,188.41,124.35,187.1Z"/><path class="cls-1" d="M251.76,35.66V24.14h77.36V35.66Z"/><path class="cls-1" d="M142.31,233.39h-9.95c-3.15-13.56,13-30.15,29.08-29.63v10.46c-4.36,2.38-9.08,3.87-12.21,7S144.77,228.86,142.31,233.39Z"/><path class="cls-1" d="M83.58,287.26H48.13v-11.5H83.58Z"/><path class="cls-1" d="M65.72.2V11.7H54.14V.2Z"/><path class="cls-1" d="M341.66,24h11.42V35.65H341.66Z"/><path class="cls-1" d="M35.86,275.71v11.42H24.24V275.71Z"/><path class="cls-1" d="M203.67,233.32c.08-36.7,29.59-65.73,66.74-65.64,36,.09,65.1,29.89,65,66.63-.1,35.92-29.89,65.21-66.19,65.09A65.74,65.74,0,0,1,203.67,233.32Zm66.14-53.68c-29.6-.06-54.05,24.1-54.18,53.52a53.91,53.91,0,1,0,107.81.19C323.46,204.15,299,179.69,269.81,179.64Z"/><path class="cls-1" d="M245.76,119.48V108H293.3v11.48Z"/><path class="cls-1" d="M245.75,365V353.53h47.54V365Z"/><path class="cls-1" d="M65.9,95.59a29.94,29.94,0,1,1,29.61,30.14A29.78,29.78,0,0,1,65.9,95.59Zm12,.3A18,18,0,1,0,96,77.85,18.21,18.21,0,0,0,77.89,95.89Z"/><path class="cls-1" d="M269.81,179.64c29.23.05,53.65,24.51,53.63,53.71a53.91,53.91,0,1,1-107.81-.19C215.76,203.74,240.21,179.58,269.81,179.64Zm-11.32,45a6.36,6.36,0,0,1-1.26-.13c-2.32-2.25-4.61-4.55-7-6.75-3.14-2.94-6.2-3-9.23-.09q-8.84,8.61-17.45,17.45c-2.8,2.87-2.81,6.08,0,9q14.58,14.76,29.35,29.35c3,3,6.21,3,9.22,0q26.65-26.51,53.16-53.15c3.12-3.13,3-6.24-.19-9.5q-8.25-8.4-16.65-16.66c-3.52-3.46-6.51-3.43-10.05.07q-10,9.85-19.83,19.83C265,217.58,261.6,221.32,258.49,224.59Z"/><path class="cls-1" d="M258.49,224.59c3.11-3.27,6.55-7,10.12-10.63q9.86-10,19.83-19.83c3.54-3.5,6.53-3.53,10.05-.07q8.4,8.26,16.65,16.66c3.19,3.26,3.31,6.37.19,9.5q-26.5,26.64-53.16,53.15c-3,3-6.2,3-9.22,0Q238.19,258.77,223.6,244c-2.84-2.87-2.83-6.08,0-9q8.61-8.85,17.45-17.45c3-3,6.09-2.85,9.23.09,2.37,2.2,4.66,4.5,7,6.75A6.36,6.36,0,0,0,258.49,224.59Zm-1.24,35.25,44.49-44.44-8.49-8.83c-.5.46-1.06.92-1.58,1.44q-14.42,14.4-28.84,28.81c-3.84,3.81-6.73,3.8-10.58-.06-2.17-2.18-4.16-4.53-5.85-6.37L237,239.61Z"/><path class="cls-1" d="M257.25,259.84,237,239.61l9.38-9.22c1.69,1.84,3.68,4.19,5.85,6.37,3.85,3.86,6.74,3.87,10.58.06q14.44-14.37,28.84-28.81c.52-.52,1.08-1,1.58-1.44l8.49,8.83Z"/></g></g></svg>